# xmcd
# 
# Track frame offsets:
#     150
#     18047
#     30232
#     45582
#     58532
#     72385
#     85652
#     96470
#     106215
#     118140
#     128840
#     142347
#     156580
#     169220
#     178902
#     190062
# 
# Disc length: 2657
# 
# Revision: 2
# Processed by: cddbd v1.5.2PL0 Copyright (c) Steve Scherf et al.
# Submitted via: fre:ac v1.0.31
# 
DISCID=df0a5f10
DTITLE=Varios - C-001 I'm A Truck
DYEAR=1988
DGENRE=Country
TTITLE0=Nashville
TTITLE1=He Took Me For A Ride
TTITLE2=I'm A Truck
TTITLE3=It's Four In The Morning
TTITLE4=Take A Letter Maria
TTITLE5=The Pool Shark
TTITLE6=Wings Of A Dove
TTITLE7=Truck Drivin' Son-Of-A-Gun
TTITLE8=Girl On The Billboard
TTITLE9=King Of The Road
TTITLE10=Big Bad John
TTITLE11=Indiana Wants Me
TTITLE12=Roll Truck Roll
TTITLE13=Truck Drivin' Outlaw
TTITLE14=Happy Tracks
TTITLE15=Turn Your Radio Off
EXTD=
EXTT0=3:54\n3:54\n
EXTT1=2:40\n2:40\n
EXTT2=3:22\n3:22\n
EXTT3=2:51\n2:51\n
EXTT4=3:03\n3:03\n
EXTT5=2:54\n2:54\n
EXTT6=2:22\n2:22\n
EXTT7=2:07\n2:07\n
EXTT8=2:36\n2:36\n
EXTT9=2:20\n2:20\n
EXTT10=2:57\n2:57\n
EXTT11=3:07\n3:07\n
EXTT12=2:45\n2:45\n
EXTT13=2:07\n2:07\n
EXTT14=2:26\n2:26\n
EXTT15=2:05\n2:05\n
PLAYORDER=
